<?xml version="1.0" encoding="UTF-8"?>
<svg id="_レイヤー_2" data-name="レイヤー 2" xmlns="http://www.w3.org/2000/svg" viewBox="0 0 360.44 203.57">
  <defs>
    <style>
      .cls-1 {
        stroke-width: .5px;
      }

      .cls-1, .cls-2, .cls-3 {
        fill: #2e3192;
      }

      .cls-1, .cls-3 {
        stroke: #000;
        stroke-miterlimit: 10;
      }

      .cls-2 {
        font-family: KozGoPr6N-Regular-90ms-RKSJ-H, 'Kozuka Gothic Pr6N';
        font-size: 16.27px;
      }
    </style>
  </defs>
  <g id="_レイヤー_1-2" data-name="レイヤー 1">
    <g>
      <g>
        <g>
          <text class="cls-2" transform="translate(0 198.06)"><tspan x="0" y="0">0</tspan></text>
          <text class="cls-2" transform="translate(38.89 198.06)"><tspan x="0" y="0">10</tspan></text>
          <text class="cls-2" transform="translate(82.27 198.06)"><tspan x="0" y="0">20</tspan></text>
          <text class="cls-2" transform="translate(125.64 198.06)"><tspan x="0" y="0">30</tspan></text>
          <text class="cls-2" transform="translate(169.02 198.06)"><tspan x="0" y="0">40</tspan></text>
          <text class="cls-2" transform="translate(212.39 198.06)"><tspan x="0" y="0">50</tspan></text>
          <text class="cls-2" transform="translate(255.77 198.06)"><tspan x="0" y="0">60</tspan></text>
          <text class="cls-2" transform="translate(299.14 198.06)"><tspan x="0" y="0">70</tspan></text>
          <text class="cls-2" transform="translate(342.52 198.06)"><tspan x="0" y="0">80</tspan></text>
        </g>
        <line class="cls-3" x1="4.48" y1="183" x2="351.48" y2="183"/>
        <g>
          <line class="cls-3" x1="4.48" y1="183" x2="4.48" y2="178.42"/>
          <line class="cls-3" x1="47.86" y1="183" x2="47.86" y2="178.42"/>
          <line class="cls-3" x1="91.23" y1="183" x2="91.23" y2="178.42"/>
          <line class="cls-3" x1="134.61" y1="183" x2="134.61" y2="178.42"/>
          <line class="cls-3" x1="177.98" y1="183" x2="177.98" y2="178.42"/>
          <line class="cls-3" x1="221.36" y1="183" x2="221.36" y2="178.42"/>
          <line class="cls-3" x1="264.73" y1="183" x2="264.73" y2="178.42"/>
          <line class="cls-3" x1="308.11" y1="183" x2="308.11" y2="178.42"/>
          <line class="cls-3" x1="351.48" y1="183" x2="351.48" y2="178.42"/>
        </g>
      </g>
      <g>
        <line class="cls-3" x1="4.48" y1="183" x2="4.48"/>
        <line class="cls-3" x1="4.48" y1="91.5" x2="13.16" y2="91.5"/>
      </g>
      <g>
        <rect class="cls-1" x="4.48" y="148.23" width="347" height="32.94"/>
        <rect class="cls-1" x="4.48" y="111.63" width="303.62" height="32.94"/>
        <rect class="cls-1" x="4.48" y="75.03" width="260.25" height="32.94"/>
        <rect class="cls-1" x="4.48" y="38.43" width="173.5" height="32.94"/>
        <rect class="cls-1" x="4.48" y="1.83" width="86.75" height="32.94"/>
      </g>
    </g>
  </g>
</svg>